HIERARCHY
ROOT Pelvis
{
	OFFSET 0.000000 0.000000 0.000000
	CHANNELS 6 Xposition Yposition Zposition Xrotation Yrotation Zrotation
	JOINT LeftUpLeg_virtual
	{
		OFFSET 0.000000 0.000000 0.000000
		CHANNELS 3 Xrotation Yrotation Zrotation
		JOINT LeftUpLeg
		{
			OFFSET 8.479700 -4.795502 -0.379100
			CHANNELS 3 Xrotation Yrotation Zrotation
			JOINT LeftLeg
			{
				OFFSET 0.024144 -32.555107 0.112900
				CHANNELS 3 Xrotation Yrotation Zrotation
				JOINT LeftFoot
				{
					OFFSET -0.024144 -32.638630 -3.012600
					CHANNELS 3 Xrotation Yrotation Zrotation
					JOINT LeftToeBase
					{
						OFFSET 0.970200 -13.225400 11.864200
						CHANNELS 3 Xrotation Yrotation Zrotation
						End Site
						{
							OFFSET 0 0 0
						}
					}
				}
			}
		}
	}
	JOINT RightUpLeg_virtual
	{
		OFFSET 0.000000 0.000000 0.000000
		CHANNELS 3 Xrotation Yrotation Zrotation
		JOINT RightUpLeg
		{
			OFFSET -8.479700 -4.795502 -0.379100
			CHANNELS 3 Xrotation Yrotation Zrotation
			JOINT RightLeg
			{
				OFFSET -0.023144 -32.555092 0.112900
				CHANNELS 3 Xrotation Yrotation Zrotation
				JOINT RightFoot
				{
					OFFSET 0.023144 -32.638641 -3.012700
					CHANNELS 3 Xrotation Yrotation Zrotation
					JOINT RightToeBase
					{
						OFFSET -0.970200 -13.225400 11.864200
						CHANNELS 3 Xrotation Yrotation Zrotation
						End Site
						{
							OFFSET 0 0 0
						}
					}
				}
			}
		}
	}
	JOINT Hips_virtual
	{
		OFFSET 0.000000 0.000000 0.000000
		CHANNELS 3 Xrotation Yrotation Zrotation
		JOINT Hips
		{
			OFFSET -0.000000 -0.000000 -0.000000
			CHANNELS 3 Xrotation Yrotation Zrotation
			JOINT Spine
			{
				OFFSET 0.000000 7.722000 1.166200
				CHANNELS 3 Xrotation Yrotation Zrotation
				JOINT Spine1
				{
					OFFSET 0.000000 12.024101 0.248800
					CHANNELS 3 Xrotation Yrotation Zrotation
					JOINT Spine2
					{
						OFFSET 0.000000 11.502998 -0.491200
						CHANNELS 3 Xrotation Yrotation Zrotation
						JOINT Neck_virtual
						{
							OFFSET 0.000000 0.000000 0.000000
							CHANNELS 3 Xrotation Yrotation Zrotation
							JOINT Neck
							{
								OFFSET 0.000000 18.430702 -3.123100
								CHANNELS 3 Xrotation Yrotation Zrotation
								JOINT Head
								{
									OFFSET 0.000000 9.051102 1.034000
									CHANNELS 3 Xrotation Yrotation Zrotation
									End Site
									{
										OFFSET 0 0 0
									}
								}
							}
						}
						JOINT LeftShoulder_virtual
						{
							OFFSET 0.000000 0.000000 0.000000
							CHANNELS 3 Xrotation Yrotation Zrotation
							JOINT LeftShoulder
							{
								OFFSET 6.197800 13.665199 -4.064700
								CHANNELS 3 Xrotation Yrotation Zrotation
								JOINT LeftArm
								{
									OFFSET 7.778100 -0.187103 -1.709300
									CHANNELS 3 Xrotation Yrotation Zrotation
									JOINT LeftForeArm
									{
										OFFSET 22.049376 0.000000 0.000000
										CHANNELS 3 Xrotation Yrotation Zrotation
										JOINT LeftHand
										{
											OFFSET 23.009392 0.000000 0.000000
											CHANNELS 3 Xrotation Yrotation Zrotation
											End Site
											{
												OFFSET 0 0 0
											}
										}
									}
								}
							}
						}
						JOINT RightShoulder_virtual
						{
							OFFSET 0.000000 0.000000 0.000000
							CHANNELS 3 Xrotation Yrotation Zrotation
							JOINT RightShoulder
							{
								OFFSET -6.197800 13.665199 -4.064700
								CHANNELS 3 Xrotation Yrotation Zrotation
								JOINT RightArm
								{
									OFFSET -7.778100 -0.187103 -1.709300
									CHANNELS 3 Xrotation Yrotation Zrotation
									JOINT RightForeArm
									{
										OFFSET -22.049376 0.000000 0.000000
										CHANNELS 3 Xrotation Yrotation Zrotation
										JOINT RightHand
										{
											OFFSET -23.009392 0.000000 0.000000
											CHANNELS 3 Xrotation Yrotation Zrotation
											End Site
											{
												OFFSET 0 0 0
											}
										}
									}
								}
							}
						}
					}
				}
			}
		}
	}
}
MOTION
Frames: 8
Frame Time: 0.03333333
0.460264 81.901749 -0.765659 0.000000 0.000000 0.000000 2.912558 -28.989358 1.159686 -17.358258 18.227786 10.846905 16.414049 13.218983 -0.947395 -1.370063 -4.092930 -4.997709 0.000000 0.000000 0.000000 2.912558 -28.989358 1.159686 -8.106603 -1.525504 -9.109889 10.362672 9.489842 0.825373 -5.501121 -0.869720 7.456319 0.000000 0.000000 0.000000 2.912558 -28.989358 1.159686 0.000000 0.000000 0.000000 7.836166 -0.359799 -2.651713 1.099252 -0.880573 2.383463 0.000000 0.000000 0.000000 1.108680 -0.590439 2.446366 -3.841836 18.019060 -6.496490 0.000000 0.000000 0.000000 1.108680 -0.590439 2.446366 -0.057386 -8.759447 -0.061006 -55.250817 0.329471 -41.449358 11.584384 -65.827301 13.005512 0.000000 0.000000 0.000000 1.108680 -0.590439 2.446366 4.849303 7.760145 5.560459 -0.933455 -2.176911 61.845642 11.299288 18.943577 -3.987581 0.000000 0.000000 0.000000 
0.306315 81.688538 -0.589474 0.000000 0.000000 0.000000 3.089469 -27.951581 1.281721 -18.400873 17.641579 10.990609 18.156009 12.381622 -1.062999 -2.251456 -3.861730 -5.114431 0.000000 0.000000 0.000000 3.089469 -27.951581 1.281721 -8.982232 -1.410779 -9.171296 12.773448 9.005680 0.785665 -7.083457 -1.365738 7.248589 0.000000 0.000000 0.000000 3.089469 -27.951581 1.281721 0.000000 0.000001 0.000000 7.586003 -0.117124 -2.926311 1.179880 -0.587873 2.428845 0.000000 0.000000 0.000000 1.179491 -0.331352 2.447598 -4.361380 17.503039 -6.286968 0.000000 0.000000 0.000000 1.179491 -0.331352 2.447598 -0.156522 -7.613171 -0.517557 -54.992875 2.359950 -39.858853 14.183523 -68.506517 15.203508 0.000000 0.000000 0.000000 1.179491 -0.331352 2.447598 4.812133 8.119673 5.688568 -0.408749 -2.451833 61.988516 12.244017 18.822499 -4.559239 0.000000 0.000000 0.000000 
0.160432 81.476822 -0.396126 0.000000 0.000000 0.000000 3.262316 -26.750228 1.357555 -19.428482 17.063494 11.122597 19.793224 11.366668 -1.190355 -3.078947 -3.623873 -5.150931 0.000000 0.000000 0.000000 3.262316 -26.750228 1.357555 -9.621501 -1.371594 -9.187188 14.799579 8.866184 0.774391 -8.510831 -2.331133 7.000429 0.000000 0.000000 0.000000 3.262316 -26.750228 1.357555 0.000000 -0.000001 0.000000 7.263187 0.185166 -3.098857 1.305102 -0.239090 2.460832 0.000000 0.000000 0.000000 1.292173 -0.018790 2.426597 -4.964533 16.791066 -6.023528 0.000000 0.000000 0.000000 1.292173 -0.018790 2.426597 -0.257672 -6.543724 -1.038121 -54.949627 4.638174 -38.362666 19.162553 -71.200836 19.813703 0.000000 0.000000 0.000000 1.292173 -0.018790 2.426597 4.776425 8.473872 5.863055 0.334842 -2.740977 62.151183 13.457526 18.694465 -5.471687 0.000000 0.000000 0.000000 
0.022883 81.268150 -0.186979 0.000000 0.000000 0.000000 3.425912 -25.388481 1.391058 -20.439259 16.530646 11.255287 21.360966 11.662516 -1.216612 -3.869887 -4.894031 -5.328225 0.000000 0.000000 0.000000 3.425912 -25.388481 1.391058 -10.064242 -1.400803 -9.167398 16.536825 8.423398 0.738292 -9.824106 -3.128773 6.841421 0.000000 0.000000 0.000000 3.425912 -25.388481 1.391058 0.000000 -0.000001 0.000000 6.887611 0.532507 -3.181784 1.460488 0.152814 2.478274 0.000000 0.000000 0.000000 1.433638 0.334549 2.384510 -5.614539 15.907838 -5.715404 0.000000 0.000000 0.000000 1.433638 0.334549 2.384510 -0.348969 -5.538392 -1.589100 -55.141575 7.041877 -36.915441 26.186525 -73.767109 26.509819 0.000000 0.000000 0.000000 1.433638 0.334549 2.384510 4.736008 8.868327 6.075510 1.246725 -3.107693 62.321262 14.852975 18.537203 -6.632877 0.000000 0.000000 0.000000 
-0.097872 81.067566 0.052422 0.000000 0.000000 0.000000 3.570536 -23.710232 1.348444 -21.468289 16.078421 11.392602 22.808734 10.844825 -1.323879 -4.593407 -5.457424 -5.266794 0.000000 0.000000 0.000000 3.570536 -23.710232 1.348444 -10.236702 -1.543002 -9.097271 17.952377 6.723517 0.603882 -11.010886 -2.966451 7.045825 0.000000 0.000000 0.000000 3.570536 -23.710232 1.348444 0.000000 0.000000 0.000000 6.423314 0.955633 -3.097159 1.662626 0.618025 2.465394 0.000000 0.000000 0.000000 1.619632 0.757043 2.301281 -6.324931 14.707614 -5.323787 0.000000 0.000000 0.000000 1.619632 0.757043 2.301281 -0.430487 -4.648617 -2.168049 -55.715824 9.563782 -35.523787 35.115300 -76.191231 35.108610 0.000000 0.000000 0.000000 1.619632 0.757043 2.301281 4.681179 9.389219 6.355684 2.453027 -3.699838 62.477885 16.528078 18.324180 -8.202577 0.000000 0.000000 0.000000 
-0.197985 80.884445 0.323223 0.000000 0.000000 0.000000 3.672036 -21.661448 1.238372 -22.520542 16.072024 11.610585 24.075922 9.616719 -1.459224 -5.216046 -6.435522 -5.011452 0.000000 0.000000 0.000000 3.672036 -21.661448 1.238372 -10.080738 -1.795662 -8.970169 18.987881 5.718042 0.528660 -12.093367 -3.802970 7.098041 0.000000 0.000000 0.000000 3.672036 -21.661448 1.238372 0.000000 0.000000 0.000000 5.928617 1.420146 -2.873006 1.872733 1.128197 2.415221 0.000000 0.000000 0.000000 1.814838 1.220441 2.175420 -7.010836 13.194685 -4.842071 0.000000 0.000000 0.000000 1.814838 1.220441 2.175420 -0.501994 -3.925658 -2.745011 -56.807356 12.189010 -34.155618 45.666290 -78.571955 45.231876 0.000000 0.000000 0.000000 1.814838 1.220441 2.175420 4.608718 10.027443 6.678369 3.684509 -4.594963 62.606484 18.200572 17.978065 -9.869366 0.000000 0.000000 0.000000 
-0.258577 80.743690 0.650869 0.000000 0.000000 0.000000 3.676024 -18.897071 1.032159 -23.409778 15.976332 11.665621 25.011282 7.944899 -1.615774 -5.623096 -7.549931 -4.528608 0.000000 0.000000 0.000000 3.676024 -18.897071 1.032159 -9.311716 -2.199470 -8.758784 19.399267 4.179275 0.414276 -12.985994 -4.792235 7.315521 0.000000 0.000000 0.000000 3.676024 -18.897071 1.032159 0.000000 0.000001 0.000000 5.437708 1.931823 -2.432361 2.064607 1.698941 2.291585 0.000000 0.000000 0.000000 1.996165 1.736918 1.970747 -7.595028 11.075825 -4.165818 0.000000 0.000000 0.000000 1.996165 1.736918 1.970747 -0.558682 -3.354604 -3.234193 -58.366630 14.790541 -32.753520 58.172093 -80.910052 57.133259 0.000000 0.000000 0.000000 1.996165 1.736918 1.970747 4.515290 10.793693 7.036816 4.746201 -5.952374 62.668263 19.585605 17.472124 -11.371068 0.000000 0.000000 0.000000 
-0.292832 80.648499 1.016403 0.000000 0.000000 0.000000 3.611300 -15.627749 0.813402 -23.915136 15.013138 11.260979 25.584248 6.633962 -1.745815 -5.797456 -8.539914 -4.066559 0.000000 0.000000 0.000000 3.611300 -15.627749 0.813402 -8.052130 -2.716485 -8.480632 19.249486 2.480921 0.294104 -13.672815 -6.094716 7.572907 0.000000 0.000000 0.000000 3.611300 -15.627749 0.813402 0.000000 -0.000001 0.000000 4.962091 2.451145 -1.951685 2.224745 2.288986 2.128772 0.000000 0.000000 0.000000 2.153549 2.268639 1.729205 -8.143601 8.487451 -3.319686 0.000000 0.000000 0.000000 2.153549 2.268639 1.729205 -0.607516 -2.771323 -3.598755 -59.863350 16.994622 -31.538197 76.083758 -81.599095 74.685100 0.000000 0.000000 0.000000 2.153549 2.268639 1.729205 4.421520 11.502894 7.301256 5.685959 -7.409095 62.768537 20.298024 17.195365 -12.000311 0.000000 0.000000 0.000000 
